<svg height="512" width="512" xmlns="http://www.w3.org/2000/svg"><circle cx="256" cy="256" fill="#ffe07d" r="132.533"/><circle cx="256" cy="256" fill="#ffe07d" r="132.533"/><path d="M256 123.467c-3.875 0-7.709.176-11.5.502 67.81 5.83 121.033 62.711 121.033 132.031S312.31 382.201 244.5 388.031c3.791.326 7.625.502 11.5.502 73.196 0 132.533-59.337 132.533-132.533S329.196 123.467 256 123.467z" fill="#ffd064"/><path d="M256 97.834a7.5 7.5 0 01-7.5-7.5V7.5a7.5 7.5 0 0115 0v82.834a7.5 7.5 0 01-7.5 7.5zM138.856 146.356a7.472 7.472 0 01-5.303-2.197L74.981 85.587a7.5 7.5 0 010-10.606 7.5 7.5 0 0110.606 0l58.572 58.572a7.5 7.5 0 010 10.606 7.474 7.474 0 01-5.303 2.197zM90.334 263.5H7.5a7.5 7.5 0 010-15h82.834a7.5 7.5 0 010 15zM80.284 439.216a7.472 7.472 0 01-5.303-2.197 7.5 7.5 0 010-10.606l58.572-58.572a7.5 7.5 0 0110.606 10.607L85.587 437.02a7.48 7.48 0 01-5.303 2.196zM256 512a7.5 7.5 0 01-7.5-7.5v-82.833a7.5 7.5 0 0115 0V504.5a7.5 7.5 0 01-7.5 7.5zM431.716 439.216a7.474 7.474 0 01-5.303-2.197l-58.572-58.572a7.5 7.5 0 0110.606-10.607l58.572 58.572a7.5 7.5 0 010 10.606 7.475 7.475 0 01-5.303 2.198zM504.5 263.5h-82.833a7.5 7.5 0 010-15H504.5a7.5 7.5 0 010 15zM373.144 146.356a7.474 7.474 0 01-5.303-2.197 7.5 7.5 0 010-10.606l58.572-58.572a7.5 7.5 0 0110.606 0 7.5 7.5 0 010 10.606l-58.572 58.572a7.472 7.472 0 01-5.303 2.197z" fill="#ffe07d"/><path d="M192.605 110.446a7.504 7.504 0 01-6.932-4.632l-15.85-38.264a7.5 7.5 0 1113.858-5.74l15.85 38.264a7.5 7.5 0 01-6.926 10.372zM102.941 200.104a7.468 7.468 0 01-2.867-.573l-38.264-15.85a7.5 7.5 0 015.74-13.858l38.264 15.85a7.5 7.5 0 01-2.873 14.431zM64.683 342.75a7.503 7.503 0 01-2.873-14.431l38.264-15.85a7.5 7.5 0 015.74 13.858l-38.264 15.85a7.487 7.487 0 01-2.867.573zM176.749 454.822a7.5 7.5 0 01-6.926-10.372l15.85-38.264a7.5 7.5 0 0113.858 5.74l-15.85 38.264a7.503 7.503 0 01-6.932 4.632zM335.25 454.822a7.504 7.504 0 01-6.932-4.632l-15.85-38.264a7.5 7.5 0 0113.858-5.74l15.85 38.264a7.5 7.5 0 01-6.926 10.372zM447.317 342.75a7.472 7.472 0 01-2.867-.573l-38.264-15.85a7.5 7.5 0 015.74-13.858l38.264 15.85a7.5 7.5 0 01-2.873 14.431zM409.059 200.104a7.503 7.503 0 01-2.873-14.431l38.264-15.85a7.5 7.5 0 115.74 13.858l-38.264 15.85a7.468 7.468 0 01-2.867.573zM319.395 110.446a7.5 7.5 0 01-6.926-10.372l15.85-38.264a7.5 7.5 0 0113.858 5.74l-15.85 38.264a7.503 7.503 0 01-6.932 4.632z" fill="#fff0af"/></svg>