<svg height="512" viewBox="0 0 527.453 527.453" width="512" xmlns="http://www.w3.org/2000/svg"><path d="M224.923 335.453H75.993a7.726 7.726 0 110-15.452h148.93a7.726 7.726 0 110 15.452zM485.593 335.453H334.127a7.726 7.726 0 110-15.452h151.466C500.154 320 512 308.154 512 293.593s-11.846-26.407-26.407-26.407c-14.56 0-26.406 11.846-26.406 26.407a7.726 7.726 0 11-15.452 0c0-23.081 18.778-41.86 41.859-41.86 23.082 0 41.86 18.778 41.86 41.86-.001 23.082-18.78 41.86-41.861 41.86z" fill="#cbe2ff"/><path d="M75.993 467.719c-23.081 0-41.859-18.778-41.859-41.86 0-23.081 18.778-41.86 41.859-41.86h153.6a7.726 7.726 0 110 15.452h-153.6c-14.56 0-26.406 11.846-26.406 26.407s11.846 26.407 26.406 26.407c14.561 0 26.407-11.846 26.407-26.407a7.726 7.726 0 1115.452 0c.001 23.083-18.777 41.861-41.859 41.861z" fill="#ddeafb"/><path d="M41.86 335.453H7.726A7.725 7.725 0 010 327.727 7.726 7.726 0 017.726 320H41.86a7.725 7.725 0 017.726 7.726 7.725 7.725 0 01-7.726 7.727z" fill="#cbe2ff"/><path d="M485.593 143.453H385.326a7.726 7.726 0 110-15.452h100.267a7.726 7.726 0 110 15.452z" fill="#ddeafb"/><path d="M436.526 71.726c17.972 0 32.483-14.815 31.988-32.899-.478-17.43-15.217-31.101-32.653-31.101H125.756c-17.684 0-32.55 14.048-32.695 31.732-.107 13.104 7.665 24.402 18.861 29.451.533.24.883.759.883 1.343 0 .814-.66 1.474-1.474 1.474H91.592c-17.437 0-32.176 13.671-32.653 31.101-.496 18.084 14.016 32.899 31.988 32.899h20.404c.814 0 1.474.66 1.474 1.474 0 .584-.35 1.103-.883 1.343-11.197 5.048-18.969 16.346-18.861 29.451.145 17.684 15.011 31.732 32.695 31.732h36.351c.865 0 1.567.702 1.567 1.567a1.57 1.57 0 01-.919 1.418c-10.923 5.093-18.495 16.169-18.495 29.015 0 13.395 8.233 24.862 19.912 29.631.465.19.775.634.775 1.137 0 .681-.552 1.232-1.232 1.232h-37.989c-17.437 0-32.176 13.671-32.653 31.101-.496 18.084 14.016 32.899 31.988 32.899h72.616c.7 0 1.267.567 1.267 1.267 0 .515-.316.97-.791 1.167-11.597 4.807-19.758 16.23-19.758 29.566s8.161 24.759 19.758 29.566c.476.197.791.652.791 1.167 0 .7-.567 1.267-1.267 1.267h-20.75c-17.436 0-32.175 13.671-32.653 31.101-.496 18.084 14.016 32.899 31.988 32.899h47.829a1.104 1.104 0 01.394 2.137c-12.265 4.731-20.886 16.795-20.476 30.82.508 17.41 15.252 31.042 32.669 31.042h54.081c17.551 0 32.366-13.835 32.697-31.383.267-14.147-8.652-26.24-21.19-30.737a.966.966 0 01.325-1.88h13.763c17.589 0 32.424-13.893 32.703-31.48.225-14.184-8.782-26.289-21.402-30.716a.924.924 0 01-.625-.872c0-.515.417-.932.932-.932h39.633c17.436 0 32.176-13.671 32.653-31.101.496-18.084-14.016-32.899-31.988-32.899h-23.299a.921.921 0 01-.921-.921c0-.391.25-.733.619-.861 12.497-4.356 21.467-16.236 21.467-30.218s-8.97-25.862-21.467-30.218a.913.913 0 01-.619-.861.92.92 0 01.921-.921h56.766c17.437 0 32.176-13.671 32.653-31.101.496-18.084-14.016-32.899-31.988-32.899h-7.311c-.69 0-1.25-.56-1.25-1.25 0-.553.367-1.031.896-1.191 13.083-3.973 22.598-15.159 22.598-29.559 0-13.622-8.513-25.251-20.508-29.869a1.102 1.102 0 01-.714-1.025c0-.61.495-1.105 1.105-1.105h20.437c17.829 0 32.794-14.257 32.746-32.087-.038-14.378-9.541-25.507-22.597-29.472a1.25 1.25 0 01-.897-1.192c0-.69.56-1.25 1.25-1.25h8.379z" fill="#dad8db"/><g fill="#c8c5c9"><path d="M327.654 393.53a.924.924 0 01-.625-.872c0-.515.417-.932.932-.932h-23.694a.926.926 0 00-.306 1.804c12.62 4.427 21.627 16.533 21.401 30.716-.279 17.587-15.114 31.48-32.703 31.48h-13.763a.972.972 0 00-.972.972c0 .41.26.769.647.908 12.538 4.498 21.457 16.591 21.19 30.738-.331 17.548-15.146 31.383-32.697 31.383h23.694c17.551 0 32.366-13.835 32.697-31.383.267-14.147-8.652-26.24-21.19-30.738a.965.965 0 01-.647-.908c0-.537.435-.972.972-.972h13.763c17.589 0 32.424-13.893 32.703-31.48.225-14.183-8.783-26.288-21.402-30.716zM428.149 71.726h8.378c17.972 0 32.483-14.815 31.988-32.899-.478-17.43-15.217-31.101-32.653-31.101h-23.694c17.436 0 32.176 13.671 32.654 31.101.496 18.084-14.016 32.899-31.988 32.899h-8.378c-.69 0-1.25.56-1.25 1.25 0 .553.367 1.031.897 1.192 13.057 3.964 22.559 15.094 22.597 29.472.047 17.829-14.917 32.087-32.746 32.087h-20.437a1.1 1.1 0 00-.391 2.13c11.995 4.618 20.508 16.247 20.508 29.869 0 14.4-9.514 25.586-22.598 29.559a1.248 1.248 0 00-.896 1.191c0 .69.56 1.25 1.25 1.25h7.311c17.972 0 32.483 14.815 31.988 32.899-.478 17.43-15.217 31.101-32.654 31.101h23.694c17.437 0 32.176-13.671 32.653-31.101.496-18.084-14.016-32.899-31.988-32.899h-7.311c-.69 0-1.25-.56-1.25-1.25 0-.553.367-1.031.896-1.191 13.083-3.973 22.598-15.159 22.598-29.559 0-13.622-8.513-25.251-20.508-29.869a1.102 1.102 0 01-.714-1.025c0-.61.495-1.105 1.105-1.105h20.437c17.829 0 32.794-14.257 32.746-32.087-.038-14.378-9.541-25.508-22.597-29.472a1.25 1.25 0 01-.897-1.192c0-.69.559-1.25 1.25-1.25zM368.26 327.726h-23.299a.921.921 0 01-.921-.921c0-.391.25-.733.619-.862 12.497-4.356 21.467-16.236 21.467-30.218s-8.97-25.862-21.467-30.218a.913.913 0 01-.619-.861c0-.508.412-.921.921-.921h-23.694a.92.92 0 00-.921.921c0 .391.25.733.619.861 12.497 4.356 21.467 16.236 21.467 30.218s-8.97 25.862-21.467 30.218a.914.914 0 00-.619.862c0 .508.412.921.921.921h23.299c17.972 0 32.483 14.815 31.988 32.899-.478 17.43-15.217 31.101-32.653 31.101h23.694c17.436 0 32.175-13.671 32.653-31.101.495-18.083-14.016-32.899-31.988-32.899z"/></g><path d="M417.326 434.393c0-18.851 15.282-34.133 34.133-34.133h25.6a8.533 8.533 0 018.533 8.533v25.6c0 18.851-15.282 34.133-34.133 34.133h-34.133z" fill="#b3e59f"/><path d="M400.26 493.32a7.727 7.727 0 01-5.464-13.19l51.2-51.2a7.727 7.727 0 0110.928 10.927l-51.2 51.2a7.71 7.71 0 01-5.464 2.263z" fill="#f7e3c1"/><path d="M477.06 400.26h-23.694a8.533 8.533 0 018.533 8.533v25.6c0 18.851-15.282 34.133-34.133 34.133h23.694c18.851 0 34.133-15.282 34.133-34.133v-25.6a8.533 8.533 0 00-8.533-8.533z" fill="#95d6a4"/><g fill="#c8c5c9"><path d="M322.653 71.726A7.726 7.726 0 00314.927 64H104.214a31.998 31.998 0 007.708 4.909c.533.24.883.759.883 1.343 0 .814-.66 1.474-1.474 1.474H91.592a33.023 33.023 0 00-21.229 7.726h244.563a7.725 7.725 0 007.727-7.726zM426.899 72.976c0-.69.56-1.25 1.25-1.25h8.378A31.869 31.869 0 00457.371 64h-74.177a7.726 7.726 0 100 15.452h55.055a33.69 33.69 0 00-10.452-5.285 1.247 1.247 0 01-.898-1.191zM169.052 135.726a7.726 7.726 0 00-7.726-7.726H70.082a31.869 31.869 0 0020.844 7.726h20.404c.814 0 1.474.66 1.474 1.474 0 .584-.35 1.103-.883 1.343a32.018 32.018 0 00-7.708 4.909h57.112a7.724 7.724 0 007.727-7.726zM322.653 199.726a7.726 7.726 0 00-7.726-7.726H104.524a33.037 33.037 0 0021.232 7.726h36.351c.866 0 1.567.702 1.567 1.567a1.57 1.57 0 01-.919 1.418 32.01 32.01 0 00-7.333 4.742h159.505a7.726 7.726 0 007.726-7.727zM358.4 199.726a7.726 7.726 0 007.726 7.726h57.11a31.869 31.869 0 00-20.844-7.726h-7.311c-.69 0-1.25-.56-1.25-1.25 0-.553.367-1.031.896-1.191A33.66 33.66 0 00405.173 192h-39.048a7.726 7.726 0 00-7.725 7.726zM220.253 263.726a7.726 7.726 0 00-7.726-7.726h-57.081a32.012 32.012 0 008.726 5.358c.465.19.775.634.775 1.137 0 .681-.552 1.232-1.232 1.232h-37.989a33.023 33.023 0 00-21.229 7.726h108.03a7.726 7.726 0 007.726-7.727zM256 263.726a7.726 7.726 0 007.726 7.726h91.229a31.966 31.966 0 00-10.296-5.944.913.913 0 01-.619-.861c0-.508.412-.921.921-.921h56.766A33.023 33.023 0 00422.956 256h-159.23a7.726 7.726 0 00-7.726 7.726zM307.2 327.726a7.726 7.726 0 007.726 7.726h74.177a31.869 31.869 0 00-20.844-7.726H344.96a.921.921 0 01-.921-.921c0-.391.25-.733.619-.862a31.966 31.966 0 0010.296-5.944h-40.029a7.727 7.727 0 00-7.725 7.727zM271.453 327.726a7.726 7.726 0 00-7.726-7.726H104.216a31.869 31.869 0 0020.844 7.726h72.616c.7 0 1.267.567 1.267 1.267 0 .515-.316.97-.791 1.167a32.018 32.018 0 00-8.572 5.292h74.147a7.725 7.725 0 007.726-7.726zM271.453 455.726a7.726 7.726 0 00-7.726-7.726H155.416a31.869 31.869 0 0020.844 7.726h47.829a1.104 1.104 0 01.394 2.137 31.96 31.96 0 00-9.302 5.589h48.546a7.725 7.725 0 007.726-7.726zM271.453 391.726a7.726 7.726 0 00-7.726-7.726H189.58a31.993 31.993 0 008.572 5.292c.476.197.791.652.791 1.167 0 .7-.567 1.267-1.267 1.267h-20.75a33.023 33.023 0 00-21.229 7.726h108.03a7.725 7.725 0 007.726-7.726zM290.134 391.726a7.726 7.726 0 007.726 7.726h40.02a31.97 31.97 0 00-10.226-5.922.924.924 0 01-.625-.872c0-.515.417-.932.932-.932h39.633A33.023 33.023 0 00388.823 384H297.86a7.726 7.726 0 00-7.726 7.726zM397.21 135.726h20.437A33.104 33.104 0 00438.901 128H229.593a7.726 7.726 0 100 15.452h176.548a31.99 31.99 0 00-9.322-5.596 1.102 1.102 0 01-.714-1.025c0-.61.495-1.105 1.105-1.105z"/></g></svg>