<svg height="512" width="512" xmlns="http://www.w3.org/2000/svg"><path d="M298.032 134.504c-24.154 0-43.535-20.724-41.792-45.225 1.431-20.112 17.362-36.563 37.42-38.616a42.512 42.512 0 018.292-.042c3.682.344 7.077-1.982 8.283-5.478C319.293 18.875 344.214 0 373.559 0c22.017 0 41.543 10.627 53.752 27.027 3.113 4.181 7.969 6.634 13.181 6.6l.318-.001c28.143 0 50.903 23.049 50.432 51.301-.462 27.656-23.602 49.577-51.262 49.577z" fill="#daeaff"/><path d="M440.811 33.626l-.318.001c-5.212.034-10.069-2.419-13.181-6.6C415.103 10.627 395.576 0 373.559 0a67.36 67.36 0 00-11.651 1.022c17.159 3.023 32.065 12.576 42.061 26.004 3.113 4.181 7.969 6.634 13.181 6.6l.319-.001c28.143 0 50.903 23.049 50.432 51.301-.462 27.656-23.602 49.577-51.262 49.577h23.342c27.66 0 50.8-21.921 51.262-49.577.471-28.251-22.289-51.3-50.432-51.3z" fill="#bed8fb"/><path d="M448.549 34.216a50.882 50.882 0 00-7.738-.59l-.318.001c-5.212.034-10.069-2.419-13.181-6.6a66.787 66.787 0 00-2.878-3.591c-24.28 9.443-41.541 33.051-41.541 60.629 0 4.204 3.408 7.611 7.612 7.611s7.611-3.408 7.611-7.611c0-27.469 22.348-49.817 49.817-49.817.208 0 .412-.015.616-.032z" fill="#cbe0fc"/><path d="M440.942 168.13h-.023c-1.239 0-2.305-.833-2.652-2.023-8.146-27.974-33.974-48.416-64.577-48.416-11.443 0-22.212 2.867-31.642 7.911-3.696 1.977-8.284.944-10.634-2.527-9.067-13.393-24.397-22.197-41.788-22.197-4.067 0-8.021.484-11.808 1.395-4.103.987-8.34-1.218-9.665-5.225-12.18-36.838-46.889-63.421-87.811-63.421-51.07 0-92.471 41.401-92.471 92.471 0 1.16.03 2.312.078 3.46a4.797 4.797 0 01-1.024 3.146l-.072.093c-.876 1.123-2.202 1.785-3.624 1.862-44.745 2.438-80.184 39.842-79.41 85.374.782 46.028 39.073 82.603 85.108 82.603H439.94c36.961 0 67.769-29.401 68.249-66.359.487-37.554-29.807-68.147-67.247-68.147z" fill="#ecf4ff"/><path d="M440.942 168.13h-.023c-1.239 0-2.305-.833-2.652-2.023-8.146-27.974-33.974-48.416-64.577-48.416-11.443 0-22.212 2.867-31.642 7.911-3.696 1.977-8.284.944-10.634-2.527-9.067-13.393-24.397-22.197-41.788-22.197-4.067 0-8.021.484-11.808 1.395-4.103.987-8.34-1.218-9.665-5.225-12.18-36.838-46.889-63.421-87.811-63.421-51.07 0-92.471 41.401-92.471 92.471 0 1.16.03 2.312.078 3.46a4.797 4.797 0 01-1.024 3.146l-.072.093c-.876 1.123-2.202 1.785-3.624 1.862-44.745 2.438-80.184 39.842-79.41 85.374.782 46.028 39.073 82.603 85.108 82.603H439.94c36.961 0 67.769-29.401 68.249-66.359.487-37.554-29.807-68.147-67.247-68.147z" fill="#ecf4ff"/><path d="M440.942 168.13h-.023c-1.239 0-2.305-.833-2.652-2.023-8.146-27.974-33.974-48.416-64.577-48.416-3.979 0-7.874.354-11.663 1.019 25.347 4.439 45.813 23.065 52.898 47.398.346 1.189 1.413 2.023 2.652 2.023h.023c37.439 0 67.733 30.593 67.246 68.145-.48 36.958-31.288 66.359-68.249 66.359h23.342c36.961 0 67.769-29.401 68.249-66.359.488-37.553-29.806-68.146-67.246-68.146z" fill="#daeaff"/><path d="M164.324 218.569a7.61 7.61 0 1015.222 0c0-52.052-40.382-94.848-91.462-98.708a94.009 94.009 0 00-.214 6.236c0 1.16.03 2.312.078 3.46a4.8 4.8 0 01-1.024 3.146l-.072.093c-.876 1.123-2.202 1.785-3.624 1.862-.675.037-1.34.107-2.011.159 45.885.359 83.107 37.784 83.107 83.752zM276.979 102.427c-3.828.521-7.592-1.645-8.827-5.38a92.107 92.107 0 00-2.555-6.809c-28.111 9.93-48.314 36.756-48.314 68.224a7.61 7.61 0 007.611 7.611 7.611 7.611 0 007.612-7.611c0-27.15 19.045-50.156 44.473-55.994zM381.302 239.187c0-4.204-3.408-7.611-7.612-7.611s-7.611 3.407-7.611 7.611c0 26.019 12.705 49.117 32.229 63.446h41.632c.815 0 1.623-.032 2.431-.06-33.885-1.257-61.069-29.199-61.069-63.386z" fill="#ddeafb"/><g fill="#bed8fb"><path d="M37.432 328.648a7.612 7.612 0 00-7.612 7.612v67.252a7.612 7.612 0 1015.223 0V336.26a7.612 7.612 0 00-7.611-7.612zM146.716 328.648a7.611 7.611 0 00-7.611 7.612v67.252a7.612 7.612 0 1015.223 0V336.26a7.612 7.612 0 00-7.612-7.612zM92.074 429.525a7.612 7.612 0 00-7.612 7.612v67.252a7.612 7.612 0 1015.223 0v-67.252a7.612 7.612 0 00-7.611-7.612zM201.358 429.525a7.611 7.611 0 00-7.611 7.612v67.252a7.612 7.612 0 1015.222 0v-67.252a7.612 7.612 0 00-7.611-7.612zM310.642 429.525a7.612 7.612 0 00-7.612 7.612v67.252a7.612 7.612 0 1015.224 0v-67.252a7.612 7.612 0 00-7.612-7.612zM419.926 429.525a7.611 7.611 0 00-7.611 7.612v67.252a7.611 7.611 0 1015.223 0v-67.252a7.612 7.612 0 00-7.612-7.612zM256 328.648a7.612 7.612 0 00-7.612 7.612v67.252a7.612 7.612 0 1015.223 0V336.26a7.611 7.611 0 00-7.611-7.612zM365.284 328.648a7.611 7.611 0 00-7.611 7.612v67.252a7.611 7.611 0 1015.223 0V336.26a7.611 7.611 0 00-7.612-7.612zM474.568 328.648a7.611 7.611 0 00-7.611 7.612v67.252a7.611 7.611 0 1015.223 0V336.26a7.613 7.613 0 00-7.612-7.612z"/></g></svg>