<svg height="512" width="512" xmlns="http://www.w3.org/2000/svg"><path d="M440.942 134.504h-.023c-1.239 0-2.305-.833-2.652-2.023-8.145-27.974-33.974-48.416-64.577-48.416-11.443 0-22.212 2.867-31.642 7.911-3.696 1.977-8.284.944-10.634-2.527-9.067-13.393-24.397-22.197-41.788-22.197-4.067 0-8.021.484-11.808 1.394-4.104.987-8.34-1.218-9.665-5.225C255.972 26.583 221.263 0 180.342 0 129.271 0 87.87 41.401 87.87 92.471c0 1.16.03 2.312.078 3.459a4.797 4.797 0 01-1.024 3.146l-.072.093c-.876 1.123-2.202 1.785-3.624 1.862-44.745 2.438-80.184 39.842-79.41 85.373.782 46.028 39.073 82.603 85.108 82.603H439.94c36.961 0 67.769-29.401 68.249-66.359.487-37.551-29.807-68.144-67.247-68.144z" fill="#ecf4ff"/><path d="M440.942 134.504h-.023c-1.239 0-2.305-.833-2.652-2.023-8.145-27.974-33.974-48.416-64.577-48.416-11.443 0-22.212 2.867-31.642 7.911-3.696 1.977-8.284.944-10.634-2.527-9.067-13.393-24.397-22.197-41.788-22.197-4.067 0-8.021.484-11.808 1.394-4.104.987-8.34-1.218-9.665-5.225C255.972 26.583 221.263 0 180.342 0 129.271 0 87.87 41.401 87.87 92.471c0 1.16.03 2.312.078 3.459a4.797 4.797 0 01-1.024 3.146l-.072.093c-.876 1.123-2.202 1.785-3.624 1.862-44.745 2.438-80.184 39.842-79.41 85.373.782 46.028 39.073 82.603 85.108 82.603H439.94c36.961 0 67.769-29.401 68.249-66.359.487-37.551-29.807-68.144-67.247-68.144z" fill="#ecf4ff"/><path d="M440.942 134.504h-.023c-1.239 0-2.305-.833-2.652-2.023-8.145-27.974-33.974-48.416-64.577-48.416-3.979 0-7.874.354-11.663 1.019 25.347 4.44 45.813 23.065 52.898 47.398.346 1.189 1.413 2.023 2.651 2.023h.023c37.439 0 67.733 30.593 67.246 68.145-.479 36.958-31.288 66.359-68.249 66.359h23.342c36.961 0 67.769-29.401 68.249-66.359.489-37.553-29.805-68.146-67.245-68.146z" fill="#daeaff"/><path d="M164.324 184.943a7.612 7.612 0 1015.222 0c0-52.052-40.382-94.848-91.462-98.708a94.009 94.009 0 00-.214 6.236c0 1.16.03 2.312.078 3.459a4.797 4.797 0 01-1.024 3.146l-.072.093c-.876 1.123-2.202 1.785-3.624 1.862-.675.037-1.34.107-2.011.159 45.885.36 83.107 37.785 83.107 83.753zM276.979 68.801c-3.828.521-7.592-1.645-8.827-5.38a92.107 92.107 0 00-2.555-6.809c-28.111 9.93-48.315 36.756-48.315 68.224a7.612 7.612 0 1015.223 0c0-27.15 19.045-50.156 44.473-55.994v-.041zM381.302 205.561c0-4.204-3.408-7.611-7.612-7.611s-7.612 3.407-7.612 7.611c0 26.019 12.705 49.117 32.229 63.446h41.632c.815 0 1.623-.032 2.431-.06-33.884-1.256-61.068-29.199-61.068-63.386z" fill="#ddeafb"/><g><g fill="#bed8fb"><path d="M155.122 362.273h-17.789l6.919-8.649a7.612 7.612 0 00-11.887-9.511l-14.528 18.159H95.482v-22.357l18.16-14.527a7.612 7.612 0 10-9.509-11.887l-8.65 6.92v-17.789a7.612 7.612 0 10-15.223 0v17.789l-8.65-6.92a7.611 7.611 0 10-9.509 11.887l18.16 14.527v22.357H57.903l-14.529-18.159a7.61 7.61 0 00-10.699-1.188 7.613 7.613 0 00-1.188 10.699l6.92 8.649H20.618a7.611 7.611 0 100 15.223h17.788l-6.919 8.648a7.612 7.612 0 0011.887 9.511l14.527-18.159h22.357v22.356L62.1 414.381a7.612 7.612 0 109.51 11.887l8.65-6.92v17.789a7.61 7.61 0 007.611 7.611 7.611 7.611 0 007.612-7.611v-17.789l8.649 6.919a7.611 7.611 0 109.509-11.887l-18.159-14.527v-22.357h22.356l14.528 18.16a7.597 7.597 0 005.949 2.856 7.612 7.612 0 005.939-12.367l-6.919-8.649h17.789a7.61 7.61 0 007.611-7.611 7.614 7.614 0 00-7.613-7.612zM491.382 362.273h-17.789l6.919-8.649a7.613 7.613 0 00-11.887-9.511l-14.528 18.159h-22.356v-22.357l18.16-14.527a7.612 7.612 0 10-9.509-11.887l-8.65 6.92v-17.789a7.612 7.612 0 10-15.223 0v17.789l-8.65-6.92a7.611 7.611 0 10-9.509 11.887l18.159 14.527v22.357h-22.355l-14.529-18.159a7.61 7.61 0 00-10.699-1.188 7.612 7.612 0 00-1.188 10.699l6.92 8.649h-17.789a7.611 7.611 0 100 15.223h17.788l-6.919 8.648a7.613 7.613 0 005.938 12.367 7.597 7.597 0 005.948-2.856l14.527-18.159h22.357v22.357l-18.159 14.527a7.612 7.612 0 109.509 11.887l8.65-6.92v17.789c0 4.204 3.408 7.611 7.612 7.611s7.611-3.407 7.611-7.611v-17.789l8.649 6.919a7.576 7.576 0 004.75 1.668 7.612 7.612 0 004.759-13.555l-18.159-14.527v-22.357h22.356l14.528 18.16a7.595 7.595 0 005.948 2.856 7.613 7.613 0 005.938-12.367l-6.919-8.649h17.789a7.611 7.611 0 00.002-15.222zM306.439 446.338h-9.383l2.716-3.396a7.612 7.612 0 00-11.887-9.511l-10.324 12.906h-13.949v-13.949l12.905-10.324a7.612 7.612 0 10-9.509-11.887l-3.396 2.717v-9.384a7.612 7.612 0 10-15.223 0v9.384l-3.396-2.717a7.611 7.611 0 10-9.509 11.887l12.905 10.324v13.949H234.44l-10.325-12.906a7.61 7.61 0 00-10.698-1.188 7.612 7.612 0 00-1.189 10.699l2.716 3.396h-9.383a7.612 7.612 0 000 15.223h9.383l-2.716 3.395a7.612 7.612 0 0011.887 9.511l10.325-12.906h13.949v13.95l-12.905 10.325a7.612 7.612 0 109.509 11.887l3.396-2.717v9.383a7.612 7.612 0 1015.223 0v-9.382l3.395 2.716a7.576 7.576 0 004.75 1.668 7.612 7.612 0 004.759-13.555l-12.905-10.324v-13.951h13.949l10.324 12.906a7.599 7.599 0 005.949 2.856 7.612 7.612 0 005.939-12.367l-2.716-3.395h9.383a7.611 7.611 0 100-15.223z"/></g><g fill="#a4ccff"><path d="M207.461 370.343l6.507-6.506 6.506 6.506c1.486 1.486 3.434 2.229 5.382 2.229s3.896-.743 5.382-2.229a7.611 7.611 0 000-10.765l-6.506-6.506 6.506-6.506a7.611 7.611 0 10-10.764-10.765l-6.506 6.506-6.507-6.506a7.611 7.611 0 10-10.764 10.765l6.506 6.506-6.506 6.506a7.611 7.611 0 1010.764 10.765zM155.58 453.492a7.614 7.614 0 00-10.764 0l-6.507 6.507-6.507-6.507a7.611 7.611 0 10-10.764 10.765l6.506 6.506-6.506 6.506a7.611 7.611 0 1010.764 10.765l6.507-6.507 6.507 6.507c1.486 1.486 3.434 2.229 5.382 2.229s3.896-.743 5.382-2.229a7.611 7.611 0 000-10.765l-6.506-6.506 6.506-6.506a7.613 7.613 0 000-10.765zM390.961 453.492a7.614 7.614 0 00-10.764 0l-6.506 6.506-6.507-6.506a7.611 7.611 0 10-10.764 10.765l6.506 6.506-6.506 6.506a7.611 7.611 0 1010.764 10.765l6.507-6.506 6.506 6.506c1.486 1.486 3.434 2.229 5.382 2.229s3.896-.743 5.382-2.229a7.611 7.611 0 000-10.765l-6.506-6.506 6.506-6.506a7.611 7.611 0 000-10.765zM491.839 453.492a7.614 7.614 0 00-10.764 0l-6.506 6.506-6.507-6.506a7.611 7.611 0 10-10.764 10.765l6.506 6.506-6.506 6.506a7.611 7.611 0 1010.764 10.765l6.507-6.506 6.506 6.506c1.486 1.486 3.434 2.229 5.382 2.229s3.896-.743 5.382-2.229a7.611 7.611 0 000-10.765l-6.506-6.506 6.506-6.506a7.611 7.611 0 000-10.765zM315.303 335.801a7.614 7.614 0 00-10.764 0l-6.507 6.506-6.506-6.506a7.611 7.611 0 10-10.764 10.765l6.506 6.506-6.506 6.506a7.611 7.611 0 1010.764 10.765l6.506-6.506 6.507 6.506c1.486 1.486 3.434 2.229 5.382 2.229s3.896-.743 5.382-2.229a7.611 7.611 0 000-10.765l-6.506-6.506 6.506-6.506a7.613 7.613 0 000-10.765zM54.702 453.492a7.614 7.614 0 00-10.764 0l-6.507 6.506-6.506-6.506a7.611 7.611 0 10-10.764 10.765l6.506 6.506-6.506 6.506a7.611 7.611 0 1010.764 10.765l6.506-6.506 6.507 6.506c1.486 1.486 3.434 2.229 5.382 2.229s3.896-.743 5.382-2.229a7.611 7.611 0 000-10.765l-6.506-6.506 6.506-6.506a7.613 7.613 0 000-10.765z"/></g></g></svg>